<svg width="141" height="48" viewBox="0 0 141 48" fill="none" xmlns="http://www.w3.org/2000/svg">
<g clip-path="url(#clip0_65_10)">
<path d="M68.23 22.31C68.79 22.31 69.23 21.86 69.23 21.31V1C69.23 0.59 68.98 0.23 68.62 0.08H68.61C68.5 0.03 68.37 0 68.23 0H32.59C32.04 0 31.59 0.45 31.59 1V2.92C33.68 5.37 34.94 8.55 34.94 12.01C34.94 15.47 33.71 18.59 31.59 21.06V21.31C31.59 21.86 32.04 22.31 32.59 22.31H39.43V46.74C39.43 47.29 39.88 47.74 40.43 47.74H60.73C61.28 47.74 61.73 47.29 61.73 46.74V22.31H68.23Z" fill="white"/>
<path d="M25.62 24.86L23.41 23.94L25.62 23.01C27.15 22.37 28.49 21.44 29.59 20.29C29.96 19.92 30.29 19.52 30.59 19.1C30.97 18.6 31.31 18.07 31.59 17.51C32.46 15.85 32.94 13.97 32.94 12.01C32.94 10.05 32.45 8.13 31.59 6.47C31.3 5.9 30.96 5.37 30.59 4.86C30.28 4.44 29.95 4.05 29.59 3.68C27.42 1.41 24.37 0 21 0H1C0.45 0 0 0.45 0 1V46.74C0 47.29 0.45 47.74 1 47.74H21C27.58 47.74 32.94 42.39 32.94 35.81C32.94 31.01 30.07 26.71 25.62 24.86Z" fill="white"/>
<path d="M140 0H119C118.45 0 118 0.45 118 1V23C118 23.55 118.45 24 119 24H127.5V22.5H133.5V24H140C140.55 24 141 23.55 141 23V1C141 0.45 140.55 0 140 0ZM129.86 16.25H129.13V16.98H126.2V17.72H125.46V19.18H129.86V20.65H124V16.98H124.73V16.25H125.46V15.52H128.4V14.05H125.46V14.78H124V13.32H124.73V12.58H129.13V13.32H129.86V16.25ZM129.86 6.67H129.13V7.4H126.2V8.14H125.46V9.6H129.86V11.07H124V7.4H124.73V6.67H125.46V5.94H128.4V4.47H125.46V5.2H124V3.74H124.73V3H129.13V3.74H129.86V6.67ZM136 14.78H134.53V14.05H132.33V14.78H131.6V15.52H134.53V16.25H135.26V16.98H136V19.92H135.26V20.65H131.6V19.92H130.86V19.18H130.13V14.05H130.86V13.32H131.6V12.58H135.26V13.32H136V14.78ZM136 10.34H135.26V11.07H130.86V10.34H130.13V3.74H130.86V3H135.26V3.74H136V10.34Z" fill="white"/>
<path d="M131.6 18.45H132.33V19.18H133.8V18.45H134.53V17.72H133.8V16.98H131.6V18.45Z" fill="white"/>
<path d="M131.6 7.4H132.33V6.67H133.06V5.94H133.8V5.2H134.53V4.47H131.6V7.4Z" fill="white"/>
<path d="M133.8 7.4H133.06V8.14H132.33V8.87H131.6V9.6H134.53V6.67H133.8V7.4Z" fill="white"/>
<path d="M132.5 25V23.5H128.5V27.5H132.5V25ZM130 26H129V25H130V26ZM132 26H131V25H132V26Z" fill="white"/>
<path d="M127 30V36H130V39C130 39.55 129.55 40 129 40H115.74V1C115.74 0.45 115.29 0 114.74 0H71.05C71.17 0.31 71.23 0.65 71.23 1V21.31C71.23 22.96 69.89 24.31 68.23 24.31H68V45.35C68 45.97 68.47 46.21 68.61 46.27C68.75 46.33 69.26 46.49 69.7 46.06L92 24L114.03 46.04C114.47 46.48 114.97 46.31 115.12 46.25C115.26 46.19 115.74 45.95 115.74 45.33V42H129C130.65 42 132 40.65 132 39V36H134V29H127V30Z" fill="white"/>
</g>
<defs>
<clipPath id="clip0_65_10">
<rect width="141" height="47.74" fill="white"/>
</clipPath>
</defs>
</svg>
