<svg xmlns="http://www.w3.org/2000/svg" width="157" height="64" viewBox="0 0 157 64" fill="none"><g clip-path="url(#clip0_2934_839)"><path d="M23.7475 0H23.7912C23.8787 0.10888 23.9701 0.213776 24.0668 0.314689C34.1916 10.4485 44.2979 20.6008 54.4281 30.7293C45.3817 39.8261 36.3062 48.8936 27.2505 57.9798C18.1843 48.9109 9.14452 39.8168 0.0703125 30.7572C3.71642 27.0606 7.40493 23.4025 11.0656 19.7205C11.2021 19.5333 11.4445 19.5612 11.6472 19.5545C13.0145 19.5625 14.3818 19.5572 15.7491 19.5598C12.2461 23.0692 8.7444 26.5812 5.24005 30.0906C5.05059 30.3163 4.73659 30.4943 4.6518 30.7731C5.56862 31.7583 6.55302 32.6838 7.4937 33.6491C14.0837 40.2456 20.6592 46.8568 27.2558 53.4453C34.8037 45.8822 42.3384 38.3044 49.9049 30.7598C49.0808 29.8861 48.2117 29.0563 47.3717 28.1998C39.5031 20.322 31.6479 12.4309 23.7727 4.561C23.7409 3.04066 23.7926 1.519 23.7475 0Z" fill="#FF6600"></path><path d="M23.7609 8.07031C25.6714 9.90799 27.5117 11.8187 29.3957 13.6843C35.0636 19.3805 40.7633 25.0462 46.4113 30.7598C40.0121 37.1399 33.6393 43.5492 27.256 49.9452C20.8461 43.5664 14.4853 37.1359 8.07812 30.7545C11.7878 27.0087 15.5174 23.2816 19.2443 19.5545C20.7388 19.5584 22.2346 19.5584 23.7304 19.5531C20.0578 23.3241 16.2779 26.9941 12.6053 30.7651C17.4968 35.6301 22.3645 40.5218 27.2295 45.4147C32.0971 40.5802 36.9264 35.7058 41.7768 30.8527C41.965 30.7306 41.7199 30.5885 41.6457 30.4889C35.6783 24.5204 29.719 18.5427 23.7596 12.5662C23.7609 11.0672 23.7596 9.5694 23.7609 8.07031Z" fill="#FF6600"></path><path d="M16.0938 30.7201C19.8273 27.0155 23.5238 23.2711 27.2507 19.5586C30.9617 23.2977 34.7059 27.0049 38.401 30.7573C34.6714 34.4658 30.9657 38.1983 27.2507 41.9214C23.7463 38.4227 20.2539 34.9093 16.7522 31.4079C16.5243 31.1861 16.3031 30.9591 16.0938 30.7201ZM20.6183 30.7559C22.8401 32.9561 25.0328 35.1868 27.252 37.391C29.4606 35.1775 31.6573 32.9521 33.8805 30.7546C31.6904 28.5199 29.4553 26.3304 27.2639 24.0983C25.0302 26.2972 22.8176 28.5212 20.6183 30.7559Z" fill="#FF6600"></path><path d="M65.1199 24.3276C66.8357 23.9531 68.5872 23.7221 70.3427 23.665C72.1061 23.6371 73.9596 23.908 75.4567 24.9038C76.5114 25.5916 77.2864 26.6818 77.6097 27.9007C77.9581 29.1462 77.8522 30.4607 77.672 31.7247C77.2878 34.2861 76.9022 36.8474 76.5326 39.4127C74.2749 40.7365 71.596 41.1216 69.0164 41.1654C66.9642 41.1893 64.7291 40.933 63.1101 39.5468C61.0949 37.8818 60.9439 34.4879 62.7603 32.6223C64.0825 31.2401 65.9983 30.6452 67.8386 30.3598C69.7597 30.057 71.7086 30.1593 73.639 30.3013C73.749 29.3931 73.5674 28.3853 72.8798 27.7334C71.9391 26.8305 70.5414 26.6618 69.296 26.7588C67.4769 26.9301 65.6698 27.2965 63.9408 27.8954C64.3369 26.707 64.7423 25.5226 65.1199 24.3276ZM69.6882 32.945C68.6892 33.0579 67.6399 33.265 66.8383 33.913C66.0579 34.5357 65.8248 35.6896 66.1732 36.6031C66.4952 37.3772 67.3298 37.7609 68.1089 37.9017C69.6312 38.1699 71.1826 37.8645 72.6586 37.4808C72.8732 36.0109 73.0719 34.5384 73.2773 33.0672C72.0995 32.8109 70.8806 32.8308 69.6882 32.945Z" fill="white"></path><path d="M115.003 25.2132C116.84 23.9146 119.164 23.5123 121.371 23.6597C122.995 23.7686 124.639 24.3781 125.768 25.589C126.888 26.7668 127.402 28.4079 127.444 30.0106C127.477 31.2096 127.289 32.3993 127.101 33.5797C123.077 33.581 119.055 33.5771 115.031 33.5824C114.965 34.6619 115.152 35.8396 115.928 36.6483C116.935 37.7238 118.498 37.9907 119.907 37.9615C121.67 37.8831 123.413 37.4874 125.074 36.8966C124.674 38.081 124.292 39.272 123.887 40.4537C121.693 41.0605 119.38 41.3872 117.11 41.0778C115.136 40.8043 113.188 39.8376 112.034 38.1673C110.863 36.5128 110.54 34.3883 110.76 32.4059C111.072 29.5485 112.644 26.8517 115.003 25.2132ZM117.526 27.5887C116.503 28.3615 115.831 29.5432 115.604 30.798C118.216 30.7927 120.829 30.8139 123.443 30.7873C123.515 30.0902 123.594 29.3693 123.378 28.6894C123.161 27.8742 122.55 27.1784 121.76 26.8823C120.352 26.3472 118.701 26.6725 117.526 27.5887Z" fill="white"></path><path d="M86.398 24.1194C89.3274 23.4183 92.5018 23.5352 95.3172 24.6452C94.9661 25.7168 94.6058 26.7843 94.252 27.8545C92.5681 27.1893 90.6987 26.8029 88.9034 27.2052C87.4686 27.5026 86.1304 28.3378 85.313 29.5687C84.3816 30.9576 84.0967 32.7674 84.5445 34.378C84.9645 35.8771 86.2179 37.0655 87.6991 37.497C89.5645 38.0401 91.5519 37.6338 93.363 37.0655C92.9602 38.2831 92.5509 39.4993 92.1534 40.7196C90.427 41.0475 88.661 41.2095 86.9055 41.1073C84.8214 40.9692 82.7095 40.142 81.3303 38.5247C79.8849 36.8676 79.3774 34.5639 79.5828 32.4102C79.9127 28.622 82.6552 25.0436 86.398 24.1194Z" fill="white"></path><path d="M98.4483 26.0417C100.13 24.4921 102.431 23.8256 104.671 23.718C106.802 23.6038 108.984 23.8309 110.97 24.6475C110.603 25.715 110.273 26.7959 109.887 27.8568C108.165 27.1557 106.229 26.7879 104.396 27.2407C102.88 27.5925 101.496 28.5632 100.735 29.9361C99.9613 31.3316 99.76 33.0618 100.261 34.5834C100.738 36.0227 101.995 37.1288 103.443 37.5245C105.283 38.0237 107.232 37.6267 109.012 37.0624C108.61 38.284 108.202 39.5042 107.798 40.7258C105.307 41.1427 102.675 41.4442 100.226 40.6528C98.1873 40.0048 96.4517 38.4221 95.7243 36.3919C94.3994 32.8095 95.6091 28.5432 98.4483 26.0417Z" fill="white"></path><path d="M133.261 24.2854C136.222 23.2179 139.481 23.7092 142.416 24.62C142.066 25.6902 141.703 26.7551 141.355 27.8253C139.873 27.1415 138.245 26.7047 136.605 26.7963C135.844 26.8521 135.016 27.0247 134.475 27.6063C134.003 28.1108 133.998 28.9779 134.488 29.4718C135.003 30.0029 135.695 30.3043 136.332 30.6589C137.619 31.3533 138.988 32.0159 139.946 33.1591C140.871 34.2572 141.043 35.8426 140.633 37.1863C140.237 38.4743 139.22 39.4874 138.048 40.0995C136.385 40.9719 134.465 41.2096 132.612 41.1392C130.762 41.0662 128.926 40.705 127.18 40.0902C127.544 38.9842 127.903 37.8768 128.285 36.776C129.975 37.6617 131.937 37.9936 133.828 37.7905C134.553 37.6949 135.332 37.5196 135.867 36.9832C136.37 36.4839 136.417 35.5996 135.952 35.0605C135.511 34.5347 134.877 34.2307 134.293 33.9C133.042 33.2096 131.703 32.5882 130.717 31.5233C129.643 30.376 129.485 28.5915 130.036 27.1654C130.587 25.7619 131.882 24.7913 133.261 24.2854Z" fill="white"></path><path d="M146.846 24.7422C148.396 23.8858 150.209 23.6322 151.96 23.6906C153.641 23.7464 155.297 24.1009 156.903 24.5908C156.879 25.1352 156.639 25.6305 156.484 26.143C156.281 26.7034 156.137 27.2863 155.892 27.832C154.513 27.1429 152.968 26.7645 151.426 26.7844C150.608 26.8162 149.71 26.9557 149.101 27.5492C148.58 28.0458 148.548 28.962 149.062 29.4745C149.575 30.003 150.265 30.3044 150.9 30.6576C152.186 31.3507 153.556 32.0133 154.515 33.1538C155.412 34.2161 155.603 35.7404 155.244 37.0536C154.914 38.2712 154.023 39.2723 152.956 39.9084C151.507 40.7781 149.797 41.1074 148.127 41.1472C145.961 41.187 143.793 40.8059 141.75 40.0903C142.114 38.9855 142.483 37.8821 142.848 36.7787C144.587 37.6723 146.598 38.0162 148.535 37.7746C149.212 37.671 149.93 37.4904 150.431 36.9898C150.925 36.5092 150.991 35.6581 150.566 35.1123C150.125 34.5494 149.458 34.2386 148.851 33.8921C147.581 33.191 146.214 32.5603 145.231 31.4569C144.31 30.4332 144.119 28.9221 144.457 27.6222C144.785 26.3688 145.727 25.3543 146.846 24.7422Z" fill="white"></path><path d="M61.4922 46.8816C62.1136 46.8789 62.7363 46.8816 63.359 46.8789C63.3616 48.69 63.3629 50.5011 63.359 52.3123C65.7265 52.3282 68.0941 52.3176 70.4617 52.3176C70.4617 50.5051 70.4604 48.694 70.463 46.8816C71.0844 46.8789 71.7058 46.8816 72.3272 46.8802C72.3298 51.2142 72.3298 55.5481 72.3272 59.8834C71.7058 59.8834 71.0831 59.886 70.4617 59.8807C70.463 57.9196 70.4617 55.9571 70.4617 53.9959C68.0941 53.9959 65.7265 53.9919 63.359 53.9986C63.3629 55.9597 63.3616 57.9209 63.359 59.8834C62.7376 59.8847 62.1149 59.8834 61.4922 59.8847C61.4935 55.5494 61.4962 51.2155 61.4922 46.8816Z" fill="white"></path><path d="M86.1276 46.8789C86.7106 46.8816 87.2936 46.8789 87.8778 46.8816C87.8765 51.2155 87.8778 55.5494 87.8765 59.8834C87.2922 59.8821 86.708 59.8834 86.125 59.8821C86.1303 55.5481 86.125 51.2128 86.1276 46.8789Z" fill="white"></path><path d="M96.7496 46.8857C97.3365 46.8778 97.9235 46.8738 98.5104 46.891C98.5104 51.2197 98.4786 55.5496 98.5276 59.8769C97.9553 59.8875 97.3829 59.8836 96.8119 59.8836C96.7933 59.5237 96.7774 59.1639 96.7576 58.8054C96.3349 59.1559 95.9573 59.5755 95.4353 59.7866C94.0164 60.4824 92.1814 60.1478 91.0777 59.0192C90.039 57.9675 89.7184 56.4074 89.8125 54.9734C89.8668 53.8075 90.4113 52.6935 91.2433 51.8862C92.3258 50.8426 93.9289 50.4163 95.3969 50.6885C95.8725 50.7815 96.3044 51.0125 96.7523 51.1891C96.7536 49.7551 96.7589 48.3197 96.7496 46.8857ZM92.4808 52.9949C91.6461 53.8607 91.4659 55.1672 91.6527 56.3144C91.7799 57.1563 92.233 58.01 93.0306 58.3818C93.9276 58.7828 95.0723 58.7124 95.8394 58.0658C96.4303 57.5679 96.7403 56.7898 96.7509 56.025C96.7589 54.9574 96.7496 53.8912 96.7549 52.8236C95.5281 51.9021 93.5884 51.8583 92.4808 52.9949Z" fill="white"></path><path d="M100.928 47.2325C101.579 47.2298 102.231 47.2352 102.883 47.2285C102.899 47.8844 102.888 48.543 102.892 49.2003C102.235 49.1937 101.578 49.2136 100.922 49.187C100.934 48.5351 100.926 47.8831 100.928 47.2325Z" fill="white"></path><path d="M78.4395 50.6169C79.7684 50.3832 81.2019 50.674 82.2724 51.5158C83.3363 52.3324 84.0279 53.6204 84.1127 54.9614C84.2173 56.1923 83.8345 57.463 83.0435 58.4137C82.1068 59.5915 80.5726 60.2394 79.0768 60.1319C77.7307 60.0828 76.4164 59.4135 75.6042 58.3354C74.804 57.3209 74.4568 55.9772 74.6291 54.6985C74.8503 52.7055 76.4521 50.9488 78.4395 50.6169ZM78.6422 52.1385C77.7903 52.3536 77.0642 52.9777 76.6986 53.7744C76.1607 54.9043 76.2428 56.3277 76.9702 57.3568C77.4538 58.0539 78.2421 58.5558 79.0966 58.6142C79.9644 58.7018 80.8561 58.3699 81.4536 57.7326C82.7268 56.4008 82.6593 54.0267 81.2774 52.7971C80.5832 52.1412 79.559 51.9141 78.6422 52.1385Z" fill="white"></path><path d="M106.915 52.1804C107.478 51.3824 108.333 50.7876 109.312 50.6561C110.409 50.5194 111.673 50.684 112.466 51.5311C113.194 52.3053 113.42 53.4087 113.428 54.4417C113.439 56.2555 113.43 58.0692 113.432 59.883C112.849 59.883 112.266 59.883 111.683 59.883C111.678 58.0679 111.693 56.2528 111.677 54.4377C111.67 53.6649 111.438 52.7726 110.704 52.3836C109.735 51.8936 108.399 52.1074 107.722 52.9904C107.134 53.7326 106.98 54.7126 106.959 55.6354C106.95 57.0508 106.958 58.4662 106.955 59.883C106.371 59.8817 105.786 59.883 105.203 59.8817C105.198 56.8609 105.226 53.8389 105.188 50.8181C105.743 50.8181 106.3 50.8181 106.857 50.8168C106.877 51.2709 106.898 51.7263 106.915 52.1804Z" fill="white"></path><path d="M119.245 50.731C120.854 50.4548 122.519 50.6938 124.053 51.2249C124.055 53.7132 124.053 56.2029 124.053 58.6925C124.059 59.8915 124.12 61.1888 123.455 62.247C122.77 63.3982 121.41 63.9439 120.121 63.9997H119.01C118.001 63.9453 117.018 63.6053 116.196 63.0185C116.468 62.5936 116.74 62.166 117.012 61.7398C117.789 62.2404 118.708 62.4993 119.632 62.4887C120.448 62.5205 121.355 62.259 121.818 61.5366C122.389 60.7346 122.274 59.7056 122.286 58.7775C120.66 60.5182 117.467 60.2951 116.148 58.2968C115.244 56.8933 115.141 55.0291 115.756 53.4928C116.343 52.0442 117.724 51.0085 119.245 50.731ZM117.742 53.4795C117.095 54.4063 117.021 55.6346 117.327 56.6981C117.543 57.4643 118.147 58.1255 118.926 58.3287C119.758 58.5332 120.712 58.4601 121.422 57.9423C121.987 57.5413 122.303 56.8482 122.301 56.1617C122.311 54.9122 122.298 53.6628 122.306 52.4146C121.531 52.1584 120.7 52.0907 119.893 52.1929C119.041 52.3031 118.231 52.7665 117.742 53.4795Z" fill="white"></path><path d="M128.789 50.6831C130.37 50.3179 132.152 50.61 133.418 51.6696C133.114 52.0746 132.79 52.4676 132.484 52.8713C131.444 52.0374 129.951 51.7506 128.71 52.2724C128.043 52.5433 127.977 53.6241 128.644 53.9375C129.933 54.5881 131.485 54.5855 132.692 55.4207C133.678 56.0819 133.935 57.5119 133.38 58.533C133.017 59.1836 132.365 59.6285 131.671 59.8661C130.684 60.218 129.612 60.1875 128.591 60.0401C127.642 59.8728 126.712 59.4718 126.055 58.7468C126.423 58.3817 126.762 57.99 127.112 57.6062C128.106 58.5529 129.588 58.8862 130.904 58.5317C131.175 58.4467 131.467 58.3591 131.666 58.1387C132.079 57.6872 131.933 56.8719 131.383 56.5958C130.089 55.8867 128.437 56.0036 127.275 55.0197C126.399 54.3252 126.198 52.9722 126.771 52.0268C127.214 51.3151 127.994 50.8822 128.789 50.6831Z" fill="white"></path><path d="M101.05 50.8183C101.631 50.8183 102.215 50.8156 102.8 50.8196C102.8 53.8403 102.796 56.8611 102.801 59.8818C102.215 59.8818 101.631 59.8845 101.047 59.8831C101.051 56.8611 101.048 53.8403 101.05 50.8183Z" fill="white"></path></g><defs><clipPath id="clip0_2934_839"><rect width="157" height="64" fill="white"></rect></clipPath></defs></svg>