<svg width="76" height="62" viewBox="0 0 76 62" fill="none" xmlns="http://www.w3.org/2000/svg">
<g clip-path="url(#clip0_1514_1187)">
<path d="M48.5629 37.1557C42.1002 42.465 30.1987 43.5118 22.0929 36.2409C12.5489 27.6829 13.2442 13.9334 20.9356 6.30893C30.1749 -2.85268 44.3338 -1.62201 51.9633 7.33213C59.5024 16.1873 57.464 27.598 52.4634 33.3552C52.1729 33.327 51.9729 33.1289 51.7728 32.9545C50.0964 31.4927 48.2629 30.2102 46.7293 28.5835C46.2721 28.1025 46.2293 27.8432 46.6008 27.2821C47.4199 26.0467 47.9724 24.7123 48.3105 23.2695C48.6343 21.8879 48.682 20.5016 48.5439 19.1012C48.2438 16.0081 46.8246 13.4666 44.6386 11.2882C43.3289 9.98206 41.7811 9.10975 40.0571 8.46849C38.2188 7.78007 36.3328 7.51602 34.3849 7.76121C30.9321 8.19029 28.0318 9.66143 25.76 12.3114C24.5647 13.7071 23.7788 15.3102 23.2454 17.0407C22.8883 18.1912 22.9216 19.3889 22.8835 20.5818C22.8073 23.2317 23.6598 25.5988 25.1314 27.7395C26.4173 29.6067 28.108 31.0542 30.2273 32.002C31.1226 32.4028 32.0418 32.78 32.9895 32.9497C34.4468 33.2091 35.8994 33.4307 37.4282 33.1336C39.1379 32.8036 40.7524 32.3226 42.2621 31.4786C42.4717 31.3607 42.6717 31.2287 42.867 31.0872C43.2337 30.8138 43.5432 30.8609 43.829 31.2098C44.8482 32.4594 45.8769 33.7089 46.9008 34.9584C47.358 35.5148 47.8104 36.0712 48.2676 36.6323C48.3867 36.7785 48.5105 36.9294 48.5581 37.1604L48.5629 37.1557ZM46.2769 20.6525C46.3007 14.4332 41.5287 9.97263 35.6994 10.0245C29.7701 10.0811 25.279 14.386 25.1743 20.4215C25.079 25.9618 29.7796 31.0259 35.628 30.8232C41.7382 31.0165 46.2579 25.9665 46.2769 20.6525ZM40.5524 14.5605C42.0478 15.6403 42.8527 17.1774 43.4432 18.8513C43.5147 19.0541 43.4956 19.2946 43.4718 19.5115C43.4337 19.8368 43.1908 20.016 42.886 20.0584C42.5955 20.0961 42.4098 19.917 42.3002 19.6576C42.024 19.0022 41.9049 18.2902 41.562 17.6537C40.7715 16.2061 39.5808 15.2348 38.0521 14.6171C37.0472 14.2069 36.009 14.122 34.9469 14.155C34.6802 14.1644 34.4326 14.1079 34.3135 13.8155C34.2087 13.5656 34.2564 13.3487 34.4135 13.1412C34.5421 12.9715 34.7278 12.9291 34.9279 12.9243C35.266 12.9243 35.6041 12.9243 35.9423 12.9243C37.6996 12.8489 39.1808 13.5656 40.5571 14.5558L40.5524 14.5605ZM43.4766 22.416C43.4194 22.9158 43.2432 23.3968 42.967 23.8353C42.7908 24.1135 42.5431 24.2502 42.2335 24.1182C41.9192 23.9815 41.6716 23.6985 41.8049 23.3591C42.0192 22.8168 42.0002 22.1897 42.4383 21.6804C43.1479 21.407 43.5623 21.6804 43.4718 22.416H43.4766Z" fill="#2B586B"/>
<path d="M7.81003 59.2369C8.61013 60.0243 9.36737 60.7787 10.0294 61.6228C10.0865 61.6935 10.0532 61.8066 9.94363 61.9434C9.08638 61.9952 8.19579 62.1886 7.48142 61.3257C7.02898 60.7787 6.43367 60.3449 5.82883 59.7933C5.39544 59.7838 4.83823 59.7933 4.27625 59.732C2.57604 59.5575 1.41399 58.6663 0.742478 57.1575C-0.062385 55.361 -0.119535 53.4796 0.15669 51.5558C0.285278 50.6505 0.471015 49.7735 0.928215 48.9766C1.53782 47.9204 2.41412 47.2367 3.61903 46.9019C5.16208 46.4729 6.60988 46.6332 7.98148 47.4112C9.02923 48.0053 9.61978 48.9766 9.92934 50.0894C10.377 51.6879 10.577 53.2957 10.2437 54.9743C10.0246 56.0683 9.76742 57.1056 9.13401 58.0345C8.80539 58.5154 8.34819 58.8691 7.81955 59.2369H7.81003ZM1.95692 53.1731C1.93787 54.0219 1.99025 54.7669 2.18075 55.526C2.4665 56.6907 2.96657 57.6384 4.15243 58.0958C5.38115 58.572 6.91468 58.1335 7.60524 57.0443C8.14341 56.1956 8.37201 55.2195 8.41487 54.2246C8.46726 53.0505 8.47678 51.8765 8.15293 50.7212C7.83861 49.599 6.99564 48.4627 5.65738 48.3259C4.16195 48.1703 3.08087 48.7267 2.47603 50.0894C2.02835 51.0985 1.87119 52.1594 1.95692 53.1731ZM15.3729 47.6988C15.3729 50.5656 15.3729 53.4325 15.3729 56.304C15.3729 58.1241 16.6969 59.5764 18.6733 59.7272C19.5448 59.7933 20.4021 59.7838 21.2689 59.7131C22.069 59.6518 22.7643 59.3642 23.3548 58.8361C24.2978 58.0015 24.5169 56.8698 24.5359 55.7146C24.5788 53.0553 24.5502 50.3959 24.5502 47.7318C24.5502 47.4961 24.5597 47.2509 24.355 47.0623C24.1502 46.9349 23.9216 46.9727 23.6977 46.9727C22.6643 46.9632 22.6309 47.001 22.6309 48.0053C22.6309 50.4289 22.6309 52.8478 22.6309 55.2714C22.6309 55.8136 22.5976 56.3559 22.4166 56.8698C21.9118 58.275 20.1401 58.4872 18.8828 58.1288C18.6209 58.0534 18.3399 57.9779 18.097 57.7893C17.3636 57.2235 17.2398 56.4313 17.2303 55.6062C17.2112 53.7908 17.2255 51.9755 17.2255 50.1554C17.2255 49.2973 17.2255 48.4344 17.2255 47.5762C17.2255 47.3074 17.1826 47.0292 16.854 46.9962C16.4111 46.9491 15.9587 46.9208 15.5348 47.034C15.3538 47.2792 15.3872 47.4913 15.3872 47.6941L15.3729 47.6988ZM36.4993 56.5162H31.5463C31.232 57.4074 30.9415 58.2278 30.6558 59.053C30.6081 59.1897 30.5795 59.3265 30.4605 59.4255C30.1033 59.7272 29.1079 59.6424 28.746 59.2274C30.2081 55.1724 31.6797 51.089 33.1275 47.0717C33.7085 46.9302 34.5467 46.9349 34.9896 47.0575C35.3468 47.5055 35.4421 48.0854 35.6373 48.6183C36.3231 50.4478 36.9756 52.2867 37.6376 54.1256C38.0472 55.262 38.452 56.3983 38.8615 57.5347C39.0187 57.9685 39.1949 58.3928 39.3521 58.8266C39.5426 59.3453 39.3759 59.5811 38.8187 59.5952C38.5758 59.6046 38.3377 59.5999 38.0948 59.5952C37.7662 59.5811 37.5471 59.3972 37.4471 59.1048C37.2232 58.4447 37.028 57.7752 36.8184 57.1103C36.7518 56.8981 36.6565 56.6954 36.4993 56.5162ZM35.9802 54.781C35.3563 52.9232 34.7467 51.1032 34.1324 49.2784C34.0895 49.2737 34.0467 49.269 33.999 49.2642C33.4609 51.0985 32.7084 52.8619 32.175 54.781H35.9755H35.9802ZM62.3931 57.9826C61.0262 57.9826 59.6546 57.9826 58.2878 57.9826C58.083 57.9826 57.8639 58.0298 57.6115 57.8129C57.6115 56.5351 57.5639 55.2007 57.6353 53.9276C57.9258 53.739 58.1401 53.7767 58.3497 53.772C59.5403 53.772 60.7309 53.772 61.9216 53.7672C62.5026 53.7625 62.6312 53.5928 62.6264 52.9374C62.6217 52.348 62.5121 52.2348 61.9216 52.2301C60.7119 52.2254 59.507 52.2301 58.2973 52.2301C58.0925 52.2301 57.8735 52.2725 57.6115 52.0415C57.6115 50.9381 57.5496 49.7641 57.6449 48.6607C57.9592 48.4862 58.1735 48.5145 58.3783 48.5145C59.8261 48.5145 61.2739 48.5145 62.7264 48.5145C63.017 48.5145 63.3646 48.5381 63.4503 48.1892C63.5408 47.8261 63.5646 47.4348 63.3598 47.0292H55.9113C55.6303 47.3027 55.6732 47.5998 55.6732 47.8827C55.6732 51.4851 55.6732 55.0875 55.6732 58.6899C55.6732 59.4538 55.8161 59.5999 56.6114 59.6047C58.6259 59.6141 60.6357 59.6047 62.6502 59.6047C62.9265 59.6047 63.2027 59.5952 63.4075 59.383C63.7266 58.2608 63.5218 57.9873 62.3883 57.9873L62.3931 57.9826ZM67.9699 59.1567C68.4271 59.4255 68.9415 59.6329 69.4606 59.6754C70.4512 59.7555 71.437 59.8734 72.4419 59.7272C74.104 59.4868 75.409 58.7748 75.8376 57.0867C76.3139 55.229 75.7804 53.9087 74.0612 53.0128C73.1039 52.513 72.0371 52.315 71.0322 51.9425C70.3417 51.6879 69.7892 51.2776 69.7035 50.5138C69.613 49.6933 69.8988 48.953 70.6846 48.5994C71.8323 48.0807 73.042 48.3023 74.2279 48.5381C74.6232 48.6183 74.9375 48.9719 75.409 48.92C75.5614 48.4579 75.4947 48.0194 75.4804 47.6186C75.3185 47.3876 75.128 47.2792 74.9184 47.1848C73.8469 46.7086 72.7229 46.6285 71.5704 46.6898C70.7655 46.7322 70.0274 46.9774 69.3368 47.3687C68.3129 47.9534 67.689 49.3255 67.8842 50.8863C68.0366 52.1075 68.7748 52.7912 69.7416 53.3146C70.4846 53.7154 71.3228 53.9229 72.1371 54.1586C72.6515 54.3095 73.1325 54.5264 73.5611 54.8423C74.4136 55.4741 74.2422 57.464 72.8134 57.9732C71.7704 58.3457 70.756 58.3033 69.694 58.0722C69.0701 57.9355 68.4795 57.6856 67.8604 57.5818C67.5223 58.0769 67.5794 58.9115 67.9747 59.1473L67.9699 59.1567ZM45.9148 57.1999C45.9148 54.1256 45.9148 51.0513 45.9148 47.977C45.9148 47.7884 45.9148 47.5951 45.8862 47.4065C45.8577 47.2037 45.7624 47.0198 45.5386 47.0057C45.0814 46.9774 44.6146 46.9114 44.1908 47.0575C43.9527 47.3357 43.9955 47.6328 43.9955 47.9157C43.9955 51.4992 43.9955 55.0875 43.9955 58.671C43.9955 59.4443 44.1384 59.5999 44.9147 59.6047C46.6863 59.6141 48.4532 59.6047 50.2249 59.6047C50.4963 59.6047 50.7773 59.5952 50.9773 59.3736C51.1059 58.8361 51.0869 58.4306 50.863 57.9873H46.0339C45.8862 57.6526 45.9196 57.4262 45.9148 57.2046V57.1999Z" fill="#2B586B"/>
</g>
<defs>
<clipPath id="clip0_1514_1187">
<rect width="76" height="62" fill="white"/>
</clipPath>
</defs>
</svg>
