<svg width="974" height="136" viewBox="0 0 974 136" fill="none" xmlns="http://www.w3.org/2000/svg">
<path d="M316.251 47.6676V48.914C310.439 49.4126 304.88 50.659 299.574 52.6533C306.396 57.1404 313.724 62.1261 313.724 71.1003C313.724 81.5702 306.144 90.2951 297.805 96.0287C290.983 100.765 280.875 106 272.284 106C264.198 106 256.87 101.762 251.059 96.7765L243.983 90.7937C241.457 88.7994 237.919 85.808 234.381 85.808H234.129C228.822 86.3066 227.306 91.043 226.801 95.5301L225.285 95.2808C225.79 90.5444 227.559 86.3066 230.844 82.8166C234.887 78.5788 240.699 75.5874 246.51 75.5874H249.037C251.059 66.8625 251.311 57.639 251.311 48.6648C251.311 42.1834 250.806 34.9542 247.016 29.4699C245.247 26.7278 241.962 24.235 238.424 24.235H237.919C234.129 24.7335 229.581 27.2264 229.581 31.2149C229.581 34.9542 233.118 37.1977 236.15 38.6934C240.951 41.6848 244.489 45.9226 244.489 51.9055C244.489 62.3754 235.645 70.3524 225.538 71.8481L225.285 70.6017L226.548 70.3524C230.086 69.6046 234.887 67.8596 235.14 63.6218C235.14 62.1261 234.381 61.1289 233.118 60.3811L230.591 58.6361C225.285 55.1461 222 49.6619 222 43.1805C222 37.447 224.527 31.4642 228.822 27.4756C234.129 22.49 241.709 19.4986 249.037 19.4986C254.596 19.4986 259.903 20.4957 264.451 23.4871C267.736 25.4814 270.01 28.2235 271.779 31.4642C272.284 28.7221 273.295 25.7307 275.569 23.7364C279.106 20.4957 284.413 19.7478 288.961 19.7478C293.762 19.7478 298.563 20.9943 302.101 24.235C305.638 27.2264 306.649 31.4642 306.902 35.702L307.154 40.6877C307.407 45.6734 309.681 47.9169 314.735 47.9169C315.24 47.9169 315.746 47.9169 316.251 47.6676ZM271.779 58.3868L302.859 50.1605C302.353 49.9112 301.595 49.9112 301.09 49.6619C296.794 48.6648 292.499 47.6676 289.467 44.1777C287.192 41.4355 286.687 37.6963 286.434 34.2063C286.182 30.4671 285.171 23.2378 279.865 23.2378H279.612C275.569 23.7364 273.042 28.9713 273.042 32.7106C273.042 34.2063 273.042 35.702 273.295 37.1977C273.547 39.192 273.547 41.4355 273.8 43.4298V45.9226C273.8 50.1605 273.042 54.6476 271.779 58.3868ZM300.585 86.3066C300.585 79.5759 295.278 73.0946 290.73 68.8567C285.676 64.1203 279.865 60.1318 272.789 58.8854L271.526 59.384C268.746 64.1204 264.451 67.6103 259.65 70.3524L253.08 73.8424C252.069 74.341 251.059 75.0888 250.301 75.5874C256.618 76.5845 262.177 79.3266 266.978 83.5645L272.284 88.3009C276.58 92.2894 283.149 97.5244 289.467 97.5244C295.784 97.5244 300.585 92.2894 300.585 86.3066ZM375.373 92.2894L376.131 93.0373C375.626 93.2865 375.373 93.5358 375.12 93.5358L366.529 100.516C364.508 102.261 362.486 104.006 360.97 106C354.906 102.261 350.61 98.2722 349.599 91.2923C347.325 93.0373 345.304 94.7822 343.282 96.5272L338.229 101.014C336.46 102.51 334.944 104.255 333.175 106C323.573 98.7708 321.551 95.2808 321.551 83.5645V68.3582C321.551 57.8882 324.331 56.3926 333.68 52.6533C336.965 51.1576 340.25 49.9112 343.282 48.1662C346.062 46.6705 348.841 44.9255 351.368 43.1805L352.884 42.1834C355.411 44.9255 358.443 47.6676 361.728 49.9112C365.266 52.6533 369.561 54.149 373.857 55.6447V56.3926L372.846 56.6418C367.54 57.3897 367.034 59.1347 367.034 64.6189V83.5645C367.034 86.0573 367.034 88.7994 368.298 91.2923C369.056 92.5387 370.319 94.0344 371.835 94.0344C373.099 93.7851 374.362 93.0373 375.373 92.2894ZM349.599 89.5473V59.6332C345.809 57.3897 342.524 54.3983 339.997 50.9083L339.239 51.1576V81.8195C339.239 82.0688 338.987 82.8166 338.987 83.0659C338.987 86.5559 339.492 93.7851 343.282 93.7851C344.546 93.7851 345.809 92.788 346.567 92.0401L348.336 90.5444C348.841 90.2951 349.094 89.7966 349.599 89.5473ZM429.912 61.8768V67.6103C429.912 74.0917 429.912 81.3209 428.649 87.553C427.638 91.2923 424.606 93.7851 420.816 95.0315L414.751 97.0258C409.192 98.7708 403.633 101.513 399.843 106C396.558 102.261 392.515 99.2694 388.472 96.7765C384.935 94.2837 381.397 92.0401 377.607 90.5444V89.7966C379.123 89.7966 380.386 89.7966 381.65 88.7994C383.418 87.553 383.418 85.808 383.418 83.8138V43.4298C383.418 35.9513 381.397 29.2206 377.354 22.7393L376.596 21.4928L377.354 20.745C380.134 23.9857 382.155 27.7249 383.418 31.7135C385.44 27.7249 388.472 24.7335 392.768 22.7393C398.327 19.9971 404.391 19 410.456 19C412.224 19 413.993 19.2493 415.762 19.2493V20.745C414.751 20.745 413.488 20.4957 412.224 20.4957C408.939 20.4957 404.897 22.2407 403.128 24.9828C401.359 27.7249 400.854 32.212 400.854 35.702C400.854 36.4499 401.106 37.447 401.106 37.9456V54.149L407.423 50.1605C411.719 47.4183 416.015 44.6762 419.805 41.4355C420.31 41.9341 420.816 42.4327 421.068 42.9312L426.122 48.1662C428.396 50.4097 429.407 53.1519 429.66 56.1433C429.912 57.8883 429.912 60.1318 429.912 61.8768ZM411.972 94.533V60.8797C411.972 58.8854 411.972 56.8911 410.961 55.1461C410.203 53.8997 408.94 53.1519 407.676 53.1519C405.149 53.1519 403.128 54.6476 401.106 55.894V85.808L402.117 86.5559C403.886 87.8023 405.655 89.298 407.423 90.7937L409.698 92.788C410.456 93.5358 411.214 94.0344 411.972 94.533ZM483.723 89.5473L482.207 90.2951C474.627 94.7822 467.299 99.2693 460.476 104.754L458.708 106C457.95 105.501 457.192 104.754 456.181 104.255L446.073 97.5244C442.789 95.0315 441.02 91.5416 440.262 87.8023C440.009 85.3095 439.504 82.0688 439.504 79.3267C439.504 77.5817 439.756 75.3381 439.756 73.5931C439.756 72.596 439.504 71.1003 439.504 69.8539C439.504 65.616 440.009 59.384 441.02 56.3926C442.283 52.404 445.568 50.4097 449.358 49.4126L473.363 41.6848L482.207 59.384C479.68 60.8797 477.406 62.1261 474.879 63.1232C472.353 64.3696 469.826 65.8653 467.299 67.1117L466.541 65.6161C465.783 63.6218 465.025 61.6275 464.014 59.6332L461.234 53.4011L458.455 47.6676L457.192 47.9169V74.341C457.192 79.0774 458.455 84.063 462.498 87.553C465.277 90.0458 469.32 91.7908 473.111 91.7908C476.648 91.7908 480.186 90.2951 483.218 88.5501L483.723 89.5473ZM534.732 70.3524V74.5903C534.732 79.0774 534.479 84.5616 533.468 87.8023C531.952 91.5416 528.667 93.5358 524.877 94.533C517.297 96.5272 511.232 98.0229 507.947 106C501.377 99.0201 492.786 94.2837 483.69 91.5416V90.7937C487.985 89.7966 488.491 88.5502 488.491 84.3123V50.9083C488.996 51.1576 489.754 51.1576 490.259 51.1576C490.765 51.1576 491.523 51.4069 492.028 51.4069C495.818 51.4069 500.114 50.4097 503.904 49.9112C510.727 48.4155 517.044 45.9226 522.098 40.937C525.382 43.4298 528.667 46.1719 531.194 49.6619C532.963 51.9054 533.721 54.3983 533.974 57.3897C534.732 61.6275 534.732 66.1146 534.732 70.3524ZM516.791 92.788V70.6017C516.791 61.8768 516.033 53.1519 506.178 50.9083V85.5587L516.791 92.788ZM588.103 89.5473L586.587 90.2951C579.006 94.7822 571.678 99.2693 564.856 104.754L563.087 106C562.329 105.501 561.571 104.754 560.56 104.255L550.453 97.5244C547.168 95.0315 545.399 91.5416 544.641 87.8023C544.388 85.3095 543.883 82.0688 543.883 79.3267C543.883 77.5817 544.136 75.3381 544.136 73.5931C544.136 72.596 543.883 71.1003 543.883 69.8539C543.883 65.616 544.388 59.384 545.399 56.3926C546.663 52.404 549.947 50.4097 553.738 49.4126L577.743 41.6848L586.587 59.384C584.06 60.8797 581.786 62.1261 579.259 63.1232C576.732 64.3696 574.205 65.8653 571.678 67.1117L570.92 65.6161C570.162 63.6218 569.404 61.6275 568.393 59.6332L565.614 53.4011L562.834 47.6676L561.571 47.9169V74.341C561.571 79.0774 562.834 84.063 566.877 87.553C569.657 90.0458 573.7 91.7908 577.49 91.7908C581.028 91.7908 584.565 90.2951 587.597 88.5501L588.103 89.5473ZM652 90.0458V91.6662C643.409 97.1504 639.745 101.513 634.186 105.377C622.562 98.7708 630.522 79.9499 619.783 72.4714L614.729 75.4628V86.182C614.729 88.9241 614.729 92.5387 617.509 92.5387C618.393 92.5387 619.404 92.2894 620.541 91.6662V93.6605C613.845 97.1504 609.423 100.765 605.885 105.377C601.969 99.8926 596.662 95.2808 591.103 94.4083V92.5387C595.525 92.5387 597.547 91.6662 597.547 87.3037V46.4212C597.547 40.6877 592.998 29.2206 590.219 27.2264L591.103 25.3567C594.767 28.0988 596.662 32.7106 597.547 36.3252C597.547 24.235 614.729 20.9943 624.458 20.9943H627.742V22.8639C619.783 22.8639 614.729 27.2264 614.729 32.7106V56.2679L633.301 42.5573C638.86 45.2994 644.167 51.1576 644.167 54.3983C644.167 55.2708 643.409 56.0186 642.524 56.2679L633.301 62.6246C638.86 67.2364 640.629 70.851 642.524 76.3352C643.914 79.9499 643.03 91.4169 648.336 91.4169C649.221 91.4169 650.61 90.5444 652 90.0458ZM614.729 73.5931L629.764 63.4971C627.237 61.0043 624.71 55.2708 620.541 55.2708C618.898 55.2708 617.256 56.0186 614.729 58.2622V73.5931Z" fill="#A98105"/>
<path d="M689.992 52.0656L688.855 53.1765L688.602 52.9296C683.043 48.7329 679.758 42.0675 679 35.4021V33.6741C679 28.7367 680.769 23.5525 683.548 19.6027C685.822 16.3934 688.855 14.1716 692.14 12.1967C705.026 8.24686 705.405 8 717.913 8C727.768 8 732.316 11.4561 739.897 17.3809C748.741 24.54 758.09 31.4523 767.439 38.1176L753.289 52.6827L761.628 59.3481L760.87 60.8293L738.128 43.055L751.52 28.7367L726.252 28.9836C717.282 29.107 702.247 29.4773 694.414 33.4272C690.118 35.649 685.822 40.5863 685.822 45.5236V46.2642C685.949 48.3626 687.844 50.8312 689.992 52.0656ZM735.222 50.9547L740.276 56.6326C741.16 58.1138 742.045 59.4715 743.055 60.8293C747.098 66.5072 751.141 72.9258 751.141 80.3317C751.141 88.972 746.719 94.1562 740.15 99.8341C732.822 105.759 723.22 108.474 713.87 108.474C704.774 108.474 697.699 105.512 694.54 103.537C691.002 101.315 687.718 95.514 687.212 92.5516C686.201 86.6268 687.718 79.4677 691.255 74.5304L694.793 69.593C696.183 67.6181 697.32 65.6432 697.32 63.1745C697.32 60.7059 695.551 59.2247 693.024 59.2247C686.96 59.2247 682.411 67.1244 680.39 69.4696L679.126 68.729C682.411 63.4214 689.234 56.2623 698.583 56.2623C706.922 56.2623 714.249 62.4339 715.007 70.8274V72.3086C715.007 75.0241 711.344 81.9363 708.943 84.5284C705.279 88.3549 701.363 93.0453 702.373 99.0935C702.626 100.698 704.647 106.006 713.239 106.253C720.44 106.5 723.725 105.759 727.263 102.55C730.8 99.3404 733.074 94.1562 733.074 89.2189C733.074 82.3067 726.884 78.3568 722.841 72.9258C718.166 67.2478 712.986 60.3356 712.986 52.6827C712.986 45.5236 716.903 39.7223 721.83 34.9084L727.136 29.7242L728.526 30.2179H728.4C726.884 31.2054 725.873 32.6866 725.873 34.6615C725.873 40.216 731.179 47.2517 735.222 50.9547ZM810.185 75.271V79.4677C810.185 83.9113 809.933 89.3423 808.922 92.5516C807.406 96.2546 804.121 98.2295 800.331 99.217C792.75 101.192 786.686 102.673 783.401 110.573C776.831 103.661 768.24 98.9701 759.143 96.2546V95.514C763.439 94.5265 763.944 93.2922 763.944 89.0955V56.0154C764.45 56.2623 765.208 56.2623 765.713 56.2623C766.218 56.2623 766.977 56.5092 767.482 56.5092C771.272 56.5092 775.568 55.5217 779.358 55.028C786.181 53.5468 792.498 51.0781 797.551 46.1408C800.836 48.6094 804.121 51.325 806.648 54.7811C808.417 57.0029 809.175 59.4716 809.427 62.434C810.185 66.6307 810.185 71.0742 810.185 75.271ZM792.245 97.4889V75.5178C792.245 66.8775 791.487 58.2372 781.632 56.0154V90.3298L792.245 97.4889ZM869.115 61.6933L856.228 74.2835L847.132 58.9778L843.341 62.6808V86.3799C843.341 90.8235 845.868 96.2546 851.175 96.2546C854.712 96.2546 857.997 93.0453 860.524 91.0704L861.535 90.0829L862.545 91.3172C859.513 93.7859 856.481 96.2546 853.449 98.4764L840.815 108.845L839.046 110.573C832.729 103.907 826.412 99.217 817.82 96.7483V95.514H819.084C824.137 95.514 825.148 92.0578 825.148 87.6143V68.8525C825.148 65.6432 824.895 59.4716 820.347 59.4716C818.831 59.4716 817.82 60.2121 816.809 60.9527C816.557 61.1996 816.051 61.4465 815.799 61.6933L814.788 60.7059L820.347 55.7686C822.369 54.2874 829.444 47.622 830.96 46.6345L831.971 45.647C839.046 48.8563 843.089 53.053 843.341 60.7059C847.132 57.4966 850.922 54.2874 854.207 50.3375L857.239 46.8814C857.744 46.3876 858.25 46.1408 858.502 45.647L869.115 61.6933ZM919.201 94.2796L917.685 95.0202C910.105 99.4638 902.777 103.907 895.954 109.338L894.186 110.573C893.428 110.079 892.67 109.338 891.659 108.845L881.551 102.179C878.267 99.7107 876.498 96.2546 875.74 92.5516C875.487 90.0829 874.982 86.8737 874.982 84.1582C874.982 82.4301 875.234 80.2083 875.234 78.4802C875.234 77.4928 874.982 76.0116 874.982 74.7772C874.982 70.5805 875.487 64.4089 876.498 61.4465C877.761 57.4966 881.046 55.5217 884.836 54.5342L908.841 46.8814L917.685 64.4089C915.158 65.8901 912.884 67.1244 910.357 68.1119C907.831 69.3462 905.304 70.8274 902.777 72.0617L902.019 70.5805C901.261 68.6056 900.503 66.6307 899.492 64.6557L896.712 58.4841L893.933 52.8062L892.669 53.053V79.2208C892.669 83.9113 893.933 88.8486 897.976 92.3047C900.755 94.7734 904.798 96.5014 908.589 96.5014C912.126 96.5014 915.664 95.0203 918.696 93.2922L919.201 94.2796ZM974 70.0868C974 78.974 974 88.108 973.242 96.9952C972.484 110.326 967.936 117.732 957.07 125.385C951.258 129.581 944.941 133.038 938.624 136L937.866 134.766C942.92 132.297 948.732 129.335 951.258 124.15C954.796 116.251 955.301 105.635 955.301 97.242V68.1119C955.301 65.1495 954.796 58.731 950.5 58.731C949.237 58.731 948.226 59.2247 947.216 59.9653L944.941 61.9402V92.7985C944.941 94.7734 945.447 98.7232 948.226 98.7232C949.237 98.7232 949.995 98.2295 950.753 97.7358C951.006 97.4889 951.511 97.4889 951.764 97.242L952.017 98.2295C948.984 99.9576 946.205 102.179 943.425 104.401C941.151 106.376 938.624 108.104 936.35 110.326C932.307 104.895 927.253 101.439 920.936 98.9701V98.2295C925.485 97.7358 926.748 96.5014 926.748 91.811V57.0029C926.748 52.0656 926.495 47.1282 925.232 42.4378C923.969 37.9942 922.2 34.2912 919.926 30.3414L919.168 28.8602L920.178 28.3664C922.705 32.3163 924.979 36.513 926.495 40.7097C928.264 35.7724 930.791 31.082 935.845 28.3664C942.162 25.1572 949.742 24.1697 956.818 24.1697H958.839V25.8978H956.818C945.699 25.8978 944.941 34.2912 944.941 43.1784V59.9653L964.145 46.1408L967.178 49.8438C972.989 56.2623 974 61.4465 974 70.0868Z" fill="#A98105"/>
<path d="M10.9898 44.1744L9.85294 45.2881L9.6003 45.0406C4.04223 40.8335 0.757919 34.1517 0 27.4698V25.7375C0 20.788 1.76847 15.591 4.54751 11.6314C6.82127 8.41418 9.85295 6.1869 13.1373 4.20709C26.0219 0.247475 26.4008 0 38.9065 0C48.7595 0 53.307 3.46466 60.8862 9.40408C69.7285 16.5809 79.0762 23.5102 88.4239 30.1921L74.2761 44.7931L82.6132 51.475L81.8552 52.9598L59.1177 35.1416L72.5076 20.788L47.2436 21.0354C38.2749 21.1592 23.2429 21.5304 15.411 25.49C11.1161 27.7173 6.82128 32.6668 6.82128 37.6163V38.3588C6.9476 40.4623 8.84239 42.9371 10.9898 44.1744ZM56.2123 43.0608L61.2651 48.7527C62.1494 50.2376 63.0336 51.5987 64.0442 52.9598C68.0864 58.6518 72.1286 65.0861 72.1286 72.5104C72.1286 81.1721 67.7074 86.3691 61.1388 92.061C53.8123 98.0004 44.2119 100.723 34.8643 100.723C25.7692 100.723 18.6953 97.7529 15.5373 95.7731C12.0004 93.5459 8.71607 87.7302 8.21079 84.7605C7.20023 78.821 8.71607 71.6442 12.253 66.6947L15.79 61.7452C17.1795 59.7654 18.3164 57.7856 18.3164 55.3108C18.3164 52.8361 16.5479 51.3512 14.0215 51.3512C7.95814 51.3512 3.41063 59.2705 1.38951 61.6215L0.126315 60.879C3.41063 55.5583 10.2319 48.3815 19.5796 48.3815C27.9167 48.3815 35.2432 54.5684 36.0012 62.9826V64.4674C36.0012 67.1897 32.3379 74.119 29.9378 76.7175C26.2745 80.5534 22.3586 85.2554 23.3692 91.3186C23.6218 92.9272 25.6429 98.2479 34.2327 98.4954C41.4329 98.7428 44.7172 98.0004 48.2542 94.7832C51.7911 91.566 54.0649 86.3691 54.0649 81.4195C54.0649 74.4902 47.8752 70.5306 43.833 65.0861C39.1592 59.3942 33.98 52.4649 33.98 44.7931C33.98 37.6163 37.896 31.8006 42.8224 26.9749L48.1279 21.7779L49.5174 22.2728H49.391C47.8752 23.2627 46.8647 24.7476 46.8647 26.7274C46.8647 32.2956 52.1701 39.3487 56.2123 43.0608Z" fill="#A98105"/>
<path d="M140.774 62.2401C140.774 71.1492 140.774 80.3058 140.016 89.215C139.258 102.579 134.711 110.003 123.847 117.675C118.036 121.882 111.72 125.346 105.404 128.316L104.647 127.079C109.699 124.604 115.51 121.634 118.036 116.437C121.573 108.518 122.079 97.8766 122.079 89.4624V60.2603C122.079 57.2906 121.573 50.8562 117.279 50.8562C116.015 50.8562 115.005 51.3512 113.994 52.0936L111.72 54.0734V85.0079C111.72 86.9877 112.226 90.9473 115.005 90.9473C116.015 90.9473 116.773 90.4523 117.531 89.9574C117.784 89.7099 118.289 89.7099 118.542 89.4624L118.794 90.4523C115.763 92.1847 112.984 94.4119 110.205 96.6392C107.931 98.619 105.404 100.351 103.131 102.579C99.0884 97.1342 94.0356 93.6695 87.7197 91.1948V90.4523C92.2672 89.9574 93.5304 88.72 93.5304 84.018V49.1239C93.5304 44.1744 93.2777 39.2248 92.0145 34.5228C90.7513 30.0682 88.9828 26.3561 86.7091 22.3965L85.9512 20.9116L86.9617 20.4167C89.4881 24.3763 91.7619 28.5834 93.2777 32.7905C95.0462 27.841 97.5726 23.1389 102.625 20.4167C108.941 17.1995 116.521 16.2096 123.594 16.2096H125.616V17.9419H123.594C112.478 17.9419 111.72 26.3561 111.72 35.2652V52.0936L130.921 38.2349L133.953 41.9471C139.763 48.3814 140.774 53.5784 140.774 62.2401ZM195.557 85.0079L193.283 86.4927L178.883 96.6392C176.104 98.3716 173.83 100.599 171.556 102.826C165.493 100.104 159.177 96.8867 154.882 91.6897C152.355 88.4725 151.345 84.5129 150.84 80.5533C150.334 76.3462 150.082 71.8916 150.082 67.6846C150.082 57.0431 150.082 50.8562 160.945 46.4016L180.651 37.9875L194.041 58.7754L167.009 75.3563C169.282 82.0382 175.851 88.4725 183.43 88.4725C187.725 88.4725 191.515 86.4927 195.052 84.018L195.557 85.0079ZM178.63 65.9522L167.009 46.1542C166.503 49.1239 166.503 52.0936 166.503 55.3108V65.2098C166.503 65.7048 166.251 66.9421 166.251 67.4371C166.251 68.6745 166.503 70.1593 166.503 71.3967L166.756 73.3765L178.63 65.9522Z" fill="#A98105"/>
</svg>
